<svg width="32" height="32" viewBox="0 0 32 32" fill="none" xmlns="http://www.w3.org/2000/svg">
<path fill-rule="evenodd" clip-rule="evenodd" d="M19.1529 5.83391C19.0665 4.79732 18.2 4 17.1598 4H14.8404C13.8002 4 12.9336 4.79732 12.8473 5.83391L12.6957 7.64774C11.8756 7.97788 11.1153 8.42532 10.4355 8.96928L8.77241 8.18653C7.83151 7.74304 6.70774 8.09482 6.18765 8.99564L5.02791 11.0044C4.50783 11.9052 4.76506 13.0543 5.61958 13.6474L7.14686 14.7073C7.08613 15.1294 7.0547 15.561 7.0547 16C7.0547 16.4386 7.08608 16.8699 7.14671 17.2918L5.61958 18.3526C4.76506 18.9457 4.50783 20.0948 5.02791 20.9956L6.18765 23.0044C6.70774 23.9052 7.83151 24.257 8.77241 23.8135L10.4355 23.0307C11.1153 23.5747 11.8756 24.0221 12.6957 24.3523L12.8473 26.1661C12.9336 27.2027 13.8002 28 14.8404 28H17.1598C18.2 28 19.0665 27.2027 19.1529 26.1661L19.3016 24.3965C20.1485 24.0688 20.9334 23.6166 21.6339 23.0625L23.2278 23.8135C24.1687 24.257 25.2924 23.9052 25.8125 23.0044L26.9723 20.9956C27.4923 20.0948 27.2351 18.9457 26.3806 18.3526L24.9525 17.3608C25.0198 16.917 25.0547 16.4626 25.0547 16C25.0547 15.5374 25.0198 15.083 24.9525 14.6392L26.3806 13.6474C27.2351 13.0543 27.4923 11.9052 26.9723 11.0044L25.8125 8.99564C25.2924 8.09482 24.1687 7.74304 23.2278 8.18653L21.6339 8.93752C20.9332 8.38315 20.1479 7.93087 19.3007 7.60313L19.1529 5.83391ZM16.0547 20C18.2638 20 20.0547 18.2091 20.0547 16C20.0547 13.7909 18.2638 12 16.0547 12C13.8456 12 12.0547 13.7909 12.0547 16C12.0547 18.2091 13.8456 20 16.0547 20Z" fill="url(#paint0_linear_402_20609)"/>
<defs>
<linearGradient id="paint0_linear_402_20609" x1="-6.48056" y1="16" x2="17.4682" y2="38.4327" gradientUnits="userSpaceOnUse">
<stop stop-color="#A300FF"/>
<stop offset="0.511423" stop-color="#2C00FF"/>
<stop offset="1" stop-color="#00AFFF"/>
</linearGradient>
</defs>
</svg>
