<svg width="32" height="32" viewBox="0 0 32 32" fill="none" xmlns="http://www.w3.org/2000/svg">
<path fill-rule="evenodd" clip-rule="evenodd" d="M14.6616 3.00526L14.8405 3H17.1599C18.7202 3 20.02 4.19599 20.1496 5.75069L20.2472 6.92L20.3507 6.9674C20.8019 7.18234 21.2361 7.43084 21.6497 7.71055L21.7462 7.778L22.8015 7.28197C24.1564 6.64335 25.7641 7.10411 26.5808 8.33747L26.6787 8.49564L27.8384 10.5044C28.6185 11.8556 28.2327 13.5792 26.9511 14.4687L26.0142 15.118L26.0263 15.2402C26.0358 15.3661 26.0429 15.4924 26.0477 15.6191L26.0548 16C26.0548 16.2545 26.0453 16.5079 26.0263 16.7598L26.0142 16.881L26.9509 17.5311C28.1814 18.3852 28.5862 20.0079 27.9264 21.3318L27.8384 21.4956L26.6787 23.5044C25.8985 24.8556 24.2129 25.3833 22.8016 24.7181L21.7462 24.221L21.65 24.2893C21.2365 24.5689 20.8025 24.8173 20.3515 25.0322L20.2482 25.079L20.1496 26.2491C20.025 27.7442 18.8185 28.9075 17.3388 28.9947L17.1599 29H14.8405C13.2802 29 11.9804 27.804 11.8508 26.2493L11.7482 25.024L11.5617 24.936C11.1893 24.7483 10.829 24.5376 10.4831 24.3051L10.3192 24.19L9.19887 24.718C7.84398 25.3566 6.23628 24.8959 5.41962 23.6625L5.32174 23.5044L4.162 21.4956C3.38187 20.1444 3.76773 18.4208 5.04917 17.5313L6.0882 16.809L6.08045 16.7209C6.07192 16.6014 6.06551 16.4815 6.06124 16.3613L6.05482 16C6.05482 15.7584 6.0634 15.5178 6.08049 15.2785L6.0882 15.189L5.0495 14.4689C3.819 13.6148 3.41417 11.9921 4.07397 10.6682L4.162 10.5044L5.32174 8.49564C6.10187 7.14441 7.78753 6.61675 9.19836 7.28173L10.3192 7.809L10.4831 7.69492C10.829 7.46242 11.1893 7.25166 11.5617 7.06405L11.7482 6.975L11.8508 5.75086C11.9754 4.25579 13.1819 3.09253 14.6616 3.00526ZM17.1599 5H14.8405C14.3204 5 13.8871 5.39866 13.8439 5.91717L13.641 8.34524L13.0693 8.5754C12.3458 8.86662 11.6693 9.26283 11.0605 9.75004L10.5738 10.1395L8.34617 9.09108C7.87572 8.86934 7.31383 9.04523 7.05379 9.49564L5.89405 11.5044C5.63401 11.9548 5.76263 12.5293 6.18982 12.8258L8.22476 14.238L8.13678 14.8496C8.08234 15.2281 8.05482 15.6122 8.05482 16C8.05482 16.3875 8.0823 16.7713 8.13665 17.1495L8.22451 17.7607L6.18989 19.1741C5.76263 19.4707 5.63401 20.0452 5.89405 20.4956L7.05379 22.5044C7.31383 22.9548 7.87572 23.1307 8.34668 22.9087L10.5738 21.8605L11.0605 22.25C11.6693 22.7372 12.3458 23.1334 13.0693 23.4246L13.641 23.6548L13.8439 26.083C13.8871 26.6013 14.3204 27 14.8405 27H17.1599C17.68 27 18.1133 26.6013 18.1565 26.0823L18.3577 23.6896L18.9409 23.4639C19.6875 23.1749 20.3859 22.7748 21.0136 22.2782L21.4997 21.8937L23.6542 22.9089C24.1247 23.1307 24.6866 22.9548 24.9466 22.5044L26.1063 20.4956C26.3664 20.0452 26.2378 19.4707 25.8103 19.174L23.8705 17.8268L23.9639 17.2109C24.0243 16.8129 24.0548 16.4085 24.0548 16C24.0548 15.5915 24.0243 15.1871 23.9639 14.7891L23.8705 14.1732L25.8105 12.8259C26.2378 12.5293 26.3664 11.9548 26.1063 11.5044L24.9466 9.49564C24.6866 9.04523 24.1247 8.86934 23.6541 9.09114L21.4997 10.1063L21.0136 9.72179C20.3857 9.22505 19.687 8.82473 18.94 8.53578L18.3563 8.31L18.1565 5.91695C18.1133 5.39866 17.68 5 17.1599 5Z" fill="url(#paint0_linear_402_20617)"/>
<circle cx="16.0547" cy="16" r="4" fill="url(#paint1_linear_402_20617)"/>
<defs>
<linearGradient id="paint0_linear_402_20617" x1="-8.48067" y1="16" x2="17.4723" y2="40.4366" gradientUnits="userSpaceOnUse">
<stop stop-color="#A300FF"/>
<stop offset="0.511423" stop-color="#2C00FF"/>
<stop offset="1" stop-color="#00AFFF"/>
</linearGradient>
<linearGradient id="paint1_linear_402_20617" x1="8.05469" y1="16" x2="16.0547" y2="24" gradientUnits="userSpaceOnUse">
<stop stop-color="#A300FF"/>
<stop offset="0.511423" stop-color="#2C00FF"/>
<stop offset="1" stop-color="#00AFFF"/>
</linearGradient>
</defs>
</svg>
