<svg width="35" height="35" viewBox="0 0 35 35" fill="none" xmlns="http://www.w3.org/2000/svg">
<g clip-path="url(#clip0_206_18)">
<path d="M0 8C0 3.58172 3.58172 0 8 0H27C31.4183 0 35 3.58172 35 8V27C35 31.4183 31.4183 35 27 35H8C3.58172 35 0 31.4183 0 27V8Z" fill="#423325"/>
<path d="M23.44 13.924C23.44 13.8018 23.4821 13.7443 23.6152 13.7443H25.907C26.0261 13.7443 26.0822 13.7874 26.0822 13.924V25.7273C26.0822 25.8495 26.0541 25.907 25.907 25.907H23.6432C23.4961 25.907 23.454 25.8351 23.454 25.7129V13.924H23.44ZM23.2788 10.5239C23.2788 9.56788 23.9376 9 24.7646 9C25.6547 9 26.2504 9.61101 26.2504 10.5239C26.2504 11.5087 25.6266 12.0479 24.7366 12.0479C23.8956 12.055 23.2788 11.5159 23.2788 10.5239ZM16.7189 18.8408C16.3125 17.1803 15.3453 13.5646 14.9809 11.8106H14.9528C14.6445 13.5574 13.8735 16.519 13.2638 18.8408H16.7189ZM12.6681 21.2633L11.5187 25.7488C11.4907 25.871 11.4486 25.8998 11.3014 25.8998H9.15687C9.00969 25.8998 8.98166 25.8566 9.00969 25.6769L13.1517 10.8115C13.2217 10.5455 13.2708 10.3011 13.2988 9.56788C13.2988 9.46006 13.3409 9.41692 13.418 9.41692H16.4807C16.5858 9.41692 16.6278 9.44568 16.6559 9.56788L21.2954 25.7057C21.3235 25.8279 21.2954 25.8998 21.1763 25.8998H18.7584C18.6392 25.8998 18.5692 25.871 18.5411 25.7632L17.3427 21.2633H12.6681Z" fill="#FF7F18"/>
</g>
<defs>
<clipPath id="clip0_206_18">
<rect width="35" height="35" fill="white"/>
</clipPath>
</defs>
</svg>
