<svg width="35" height="35" viewBox="0 0 35 35" fill="none" xmlns="http://www.w3.org/2000/svg">
<g clip-path="url(#clip0_206_14)">
<path d="M28.8024 0H6.19763C2.77477 0 0 2.8459 0 6.35649V28.6435C0 32.1541 2.77477 35 6.19763 35H28.8024C32.2252 35 35 32.1541 35 28.6435V6.35649C35 2.8459 32.2252 0 28.8024 0Z" fill="#001E36"/>
<path d="M7.88141 24.5442V9.15588C7.88141 9.04435 7.92792 8.98753 8.0223 8.98753C8.27192 8.98753 8.50104 8.98753 8.84299 8.97561C9.18495 8.96368 9.55905 8.95947 9.95846 8.95176L11.2264 8.92721C11.6723 8.91926 12.1144 8.91528 12.5525 8.91528C13.7421 8.91528 14.7452 9.06773 15.5618 9.37263C16.2959 9.62785 16.9654 10.0474 17.5219 10.6009C17.9937 11.0809 18.3582 11.6603 18.5901 12.2991C18.8096 12.921 18.9204 13.5778 18.9177 14.2393C18.9177 15.5243 18.6282 16.5839 18.0492 17.4182C17.466 18.256 16.6466 18.8906 15.7013 19.2363C14.7151 19.6137 13.6188 19.7414 12.4137 19.7414C12.0718 19.7414 11.8269 19.7379 11.686 19.7295C11.5451 19.721 11.3338 19.7175 11.052 19.7175V24.5217C11.0556 24.5467 11.0543 24.5721 11.0483 24.5965C11.0422 24.6209 11.0315 24.6439 11.0167 24.664C11.002 24.6842 10.9835 24.7011 10.9623 24.7139C10.9411 24.7267 10.9177 24.735 10.8934 24.7385C10.8759 24.7413 10.8582 24.7413 10.8407 24.7385H8.04555C7.93339 24.7364 7.88141 24.6725 7.88141 24.5442ZM11.052 11.8775V16.8963C11.2554 16.9127 11.4432 16.9206 11.6156 16.9202H12.3905C12.9606 16.9182 13.527 16.8254 14.0695 16.6452C14.5344 16.5041 14.9501 16.229 15.267 15.8526C15.572 15.4836 15.7245 14.9692 15.7245 14.3094C15.7364 13.8435 15.6177 13.3839 15.3826 12.9851C15.1362 12.5993 14.7799 12.3007 14.3622 12.13C13.8177 11.9131 13.2362 11.8108 12.6524 11.8291C12.2762 11.8291 11.9436 11.8331 11.6546 11.841C11.3655 11.849 11.1658 11.8611 11.0555 11.8775H11.052Z" fill="#31A8FF"/>
<path d="M27.996 15.9839C27.5548 15.7511 27.0848 15.5809 26.5988 15.4781C26.0635 15.352 25.5162 15.2873 24.967 15.2852C24.67 15.2771 24.3734 15.3137 24.0868 15.3939C23.9041 15.4354 23.7417 15.5421 23.6286 15.6949C23.5521 15.8171 23.5115 15.9593 23.5116 16.1045C23.5158 16.2453 23.5653 16.3808 23.6525 16.4896C23.7895 16.6542 23.9572 16.7892 24.1456 16.8866C24.4802 17.0709 24.825 17.2348 25.1783 17.3776C25.9663 17.6483 26.7194 18.0163 27.4209 18.4733C27.8983 18.7829 28.2935 19.209 28.5712 19.7134C28.8052 20.1919 28.9226 20.7214 28.9132 21.2566C28.927 21.9624 28.7304 22.6557 28.3496 23.2438C27.9417 23.8403 27.3753 24.3041 26.7178 24.5801C26.0038 24.9018 25.1225 25.0627 24.0738 25.0627C23.4079 25.069 22.7433 25.0044 22.0904 24.8698C21.5759 24.773 21.0751 24.6111 20.5995 24.3879C20.5481 24.3608 20.5052 24.3192 20.476 24.268C20.4468 24.2168 20.4325 24.1581 20.4347 24.0989V21.4986C20.4317 21.4731 20.4356 21.4473 20.446 21.4239C20.4564 21.4005 20.4728 21.3805 20.4935 21.3661C20.5136 21.3543 20.5368 21.3491 20.56 21.3512C20.5831 21.3533 20.605 21.3627 20.6228 21.378C21.185 21.7179 21.7956 21.9657 22.4324 22.1124C22.9933 22.2568 23.5687 22.3335 24.147 22.3411C24.6941 22.3411 25.0972 22.2688 25.3561 22.1243C25.4727 22.0695 25.5713 21.9813 25.64 21.8703C25.7087 21.7592 25.7446 21.6301 25.7432 21.4986C25.7432 21.2896 25.6258 21.0887 25.391 20.8961C25.1562 20.7034 24.6784 20.4719 23.9575 20.2017C23.2203 19.9385 22.5213 19.574 21.8798 19.1179C21.421 18.791 21.043 18.3586 20.776 17.8553C20.5445 17.3809 20.4273 16.8566 20.434 16.3262C20.432 15.6872 20.6029 15.0602 20.9278 14.515C21.2969 13.916 21.827 13.4393 22.4543 13.1423C23.1428 12.7892 24.0036 12.6127 25.0367 12.6127C25.6419 12.6075 26.2466 12.6516 26.845 12.7446C27.2782 12.8017 27.7016 12.9197 28.1034 13.0953C28.1353 13.1047 28.1646 13.1216 28.1891 13.1446C28.2135 13.1676 28.2324 13.1961 28.2443 13.2279C28.2602 13.2866 28.268 13.3472 28.2675 13.4082V15.8408C28.2694 15.8689 28.2641 15.897 28.2521 15.9224C28.2401 15.9477 28.2219 15.9694 28.1992 15.9853C28.1675 16.0012 28.1327 16.0093 28.0974 16.0091C28.0622 16.0088 28.0275 16.0002 27.996 15.9839Z" fill="#31A8FF"/>
</g>
<defs>
<clipPath id="clip0_206_14">
<rect width="35" height="35" fill="white"/>
</clipPath>
</defs>
</svg>
