<svg width="35" height="35" viewBox="0 0 35 35" fill="none" xmlns="http://www.w3.org/2000/svg">
<rect width="35" height="35" rx="8" fill="#434343"/>
<path d="M13.1251 30.625C15.5401 30.625 17.5001 28.665 17.5001 26.25V21.875H13.1251C10.71 21.875 8.75 23.835 8.75 26.25C8.75 28.665 10.71 30.625 13.1251 30.625Z" fill="#0ACF83"/>
<path d="M8.75 17.5C8.75 15.085 10.71 13.125 13.1251 13.125H17.5001V21.8749H13.1251C10.71 21.875 8.75 19.915 8.75 17.5Z" fill="#A259FF"/>
<path d="M8.75 8.75002C8.75 6.33503 10.71 4.375 13.1251 4.375H17.5001V13.1249H13.1251C10.71 13.1249 8.75 11.165 8.75 8.75002Z" fill="#F24E1E"/>
<path d="M17.4999 4.375H21.875C24.29 4.375 26.25 6.33503 26.25 8.75002C26.25 11.165 24.29 13.1249 21.875 13.1249H17.4999V4.375Z" fill="#FF7262"/>
<path d="M26.25 17.5C26.25 19.915 24.29 21.875 21.875 21.875C19.46 21.875 17.4999 19.915 17.4999 17.5C17.4999 15.085 19.46 13.125 21.875 13.125C24.29 13.125 26.25 15.085 26.25 17.5Z" fill="#1ABCFE"/>
</svg>
