<svg width="32" height="32" viewBox="0 0 32 32" fill="none" xmlns="http://www.w3.org/2000/svg">
<path d="M20 6H22C23.1046 6 24 6.89543 24 8V24C24 25.1046 23.1046 26 22 26H20C18.8954 26 18 25.1046 18 24V8C18 6.89543 18.8954 6 20 6Z" fill="url(#paint0_linear_402_20588)"/>
<path d="M10 6H12C13.1046 6 14 6.89543 14 8V24C14 25.1046 13.1046 26 12 26H10C8.89543 26 8 25.1046 8 24V8C8 6.89543 8.89543 6 10 6Z" fill="url(#paint1_linear_402_20588)"/>
<defs>
<linearGradient id="paint0_linear_402_20588" x1="15" y1="16" x2="26.0092" y2="19.3028" gradientUnits="userSpaceOnUse">
<stop stop-color="#A300FF"/>
<stop offset="0.511423" stop-color="#2C00FF"/>
<stop offset="1" stop-color="#00AFFF"/>
</linearGradient>
<linearGradient id="paint1_linear_402_20588" x1="5" y1="16" x2="16.0092" y2="19.3028" gradientUnits="userSpaceOnUse">
<stop stop-color="#A300FF"/>
<stop offset="0.511423" stop-color="#2C00FF"/>
<stop offset="1" stop-color="#00AFFF"/>
</linearGradient>
</defs>
</svg>
