<svg width="32" height="32" viewBox="0 0 32 32" fill="none" xmlns="http://www.w3.org/2000/svg">
<path fill-rule="evenodd" clip-rule="evenodd" d="M16.0743 6.42659C17.564 5.05693 19.8008 4.09764 21.7329 4.0071L21.9945 4.00018C26.9013 3.97338 30 7.01134 30 13.0003C30 16.8307 26.6496 21.2248 20.009 26.3216L19.1963 26.9365C18.6441 27.3488 18.0707 27.7656 17.4764 28.187L16.5691 28.8225C16.2267 29.0596 15.7731 29.0596 15.4307 28.8225L14.5234 28.187C13.9291 27.7656 13.3558 27.3488 12.8035 26.9365L11.9908 26.3216C5.35039 21.2248 2 16.8307 2 13.0003C2 7.02026 5.08271 4.00538 9.99906 4.00016C11.9699 3.99831 14.3588 4.98873 15.923 6.42461L15.999 6.49732L16.0743 6.42659ZM28 13.0003C28 8.12665 25.8098 5.97937 22.0055 6.00015L21.778 6.00732C20.0119 6.10722 17.7815 7.2283 16.8135 8.58198C16.4147 9.13974 15.5856 9.13977 15.1867 8.58205C14.1761 7.16901 11.7696 5.9985 10.0011 6.00016C6.17828 6.00422 4 8.13457 4 13.0003C4 15.1219 5.47953 17.6852 8.45859 20.6441L8.99988 21.1704C9.1855 21.3472 9.37631 21.5253 9.57232 21.7048L10.1759 22.2474C10.7952 22.7939 11.4612 23.3526 12.1741 23.923L12.9027 24.4974C13.1508 24.6902 13.4041 24.8842 13.6626 25.0796L14.4538 25.6696C14.8573 25.9665 15.2725 26.2663 15.6995 26.569L16 26.7803L16.3003 26.569L17.1386 25.9675L17.9455 25.3736C18.473 24.9803 18.9796 24.5922 19.4653 24.2092L20.1783 23.6388C20.2945 23.5444 20.4094 23.4503 20.5231 23.3565L21.1891 22.7979C21.8396 22.2434 22.4432 21.7008 23 21.1704L23.5413 20.6441C26.4328 17.7722 27.9117 15.273 27.9962 13.1887L28 13.0003Z" fill="url(#paint0_linear_402_20569)"/>
<defs>
<linearGradient id="paint0_linear_402_20569" x1="-12" y1="16.5002" x2="12.8407" y2="44.3213" gradientUnits="userSpaceOnUse">
<stop stop-color="#A300FF"/>
<stop offset="0.511423" stop-color="#2C00FF"/>
<stop offset="1" stop-color="#00AFFF"/>
</linearGradient>
</defs>
</svg>
